<svg width="1366" height="1127" viewBox="0 0 1366 1127" fill="none" xmlns="http://www.w3.org/2000/svg">
<path d="M1039.2 508.558L1432.78 225.377C1480.25 237.215 1496.81 371.789 1544.56 406.95C1592.3 442.111 1569.72 445.634 1605.22 489.69L1158.63 714.288L821.17 854.616L492.616 1026.8L326.465 1000.41L467.078 952.732L530.798 884.321L432.857 910.041L231.895 914.928L72.1351 749.632L268.835 829.503L405.553 727.036L333.679 700.206L137.269 447.925L388.969 558.376L600.206 549.678L576.566 481.114L319.872 396.537L509.322 376.634L709.274 395.608L880.981 598.769L1039.2 508.558Z" fill="#040404"/>
</svg>
