<svg width="495" height="151" viewBox="0 0 495 151" fill="none" xmlns="http://www.w3.org/2000/svg">
<path d="M21.6152 29.9785H42.2344V30.4766C42.2344 30.875 40.79 31.9873 37.9014 33.8135C41.5205 76.3467 43.5957 97.6133 44.127 97.6133C45.7207 98.9082 46.8496 99.5557 47.5137 99.5557V100.502H24.4541V99.5557C29.1357 96.667 31.709 95.2227 32.1738 95.2227C31.8418 90.707 31.3604 73.126 30.7295 42.4795H30.2314L23.5078 78.9365H22.5615C17.1162 57.1553 14.3936 45.7998 14.3936 44.8701H13.9453V46.3145L15.8379 96.667C18.0957 97.7627 19.2246 98.5596 19.2246 99.0576V99.5557C14.5098 99.5557 8.43359 99.8711 0.996094 100.502V100.004C0.996094 99.6719 2.1084 98.0781 4.33301 95.2227V37.2002L0.498047 33.8135V33.3652C1.56055 33.6641 7.4707 33.9795 18.2285 34.3115L18.7266 35.2578C17.4316 35.9219 16.7842 36.7187 16.7842 37.6484C20.3037 49.2695 22.7109 57.5869 24.0059 62.6006H24.4541C24.4541 60.7412 25.417 51.1455 27.3428 33.8135C23.7568 31.9209 21.8477 30.9746 21.6152 30.9746V29.9785ZM72.0674 29.8291C81.4971 35.1748 86.2119 38.6279 86.2119 40.1885C89.7314 54.001 91.9229 60.9072 92.7861 60.9072C95.708 62.1689 97.6006 63.4307 98.4639 64.6924C93.749 66.9834 91.3916 70.1211 91.3916 74.1055C89.8311 87.6191 88.4199 94.376 87.1582 94.376L74.9062 100.502C65.1445 95.3223 60.1143 92.1846 59.8154 91.0889C56.5283 79.0029 54.3369 72.3955 53.2412 71.2666C53.042 71.2666 51.4648 70.8018 48.5098 69.8721V69.4238C48.5098 68.9922 50.7012 67.8799 55.084 66.0869C58.5703 47.2275 60.7783 37.333 61.708 36.4033L72.0674 29.8291ZM64.5469 41.583C64.5469 43.8408 63.75 52.4902 62.1562 67.5312C65.0781 81.0781 67.1201 88.2998 68.2822 89.1963C72.7646 92.6494 75.2881 94.376 75.8525 94.376C81.7959 91.2217 84.7676 88.7148 84.7676 86.8555C86.6602 75.4004 87.9219 68.6436 88.5527 66.585C80.916 48.0244 76.5166 38.1299 75.3545 36.9014L64.5469 41.583ZM73.96 44.4219H74.4082C74.8066 44.4219 77.3301 51.3281 81.9785 65.1406C80.7168 76.5625 80.0859 84.415 80.0859 88.6982H76.7988C73.877 88.6982 71.9844 86.9717 71.1211 83.5186C71.1211 82.6885 69.2451 77.5088 65.4932 67.9795C67.917 53.2373 70.1084 45.8662 72.0674 45.8662L73.96 44.4219ZM124.811 29.7793L145.38 31.7715V32.7676C142.69 34.1621 141.346 41.8652 141.346 55.877L138.855 95.9697C142.242 97.9951 144.085 99.0078 144.384 99.0078V100.004H131.833C130.903 100.004 125.541 82.6055 115.746 47.8086H115.248L114.252 96.9658C116.609 98.5596 117.788 99.5723 117.788 100.004V100.502L99.709 99.5059V98.5098C100.273 98.5098 102.282 97.165 105.735 94.4756C105.403 92.085 105.237 90.7568 105.237 90.4912C105.237 85.71 105.071 69.9883 104.739 43.3262C104.739 37.2168 103.561 33.6973 101.203 32.7676C100.705 32.7676 100.041 32.1035 99.2109 30.7754V30.2773C108.541 30.9414 114.219 31.2734 116.244 31.2734C117.605 34.5273 122.287 51.5771 130.289 82.4229H130.837V80.9287L128.297 34.7598C127.799 34.7598 126.471 33.2656 124.312 30.2773C124.645 30.2773 124.811 30.1113 124.811 29.7793ZM180.144 29.9287L183.879 43.5752L190.503 44.5215V45.4678L174.914 54.3828V53.9346C174.615 52.5732 173.835 46.7627 172.573 36.5029H168.34C168.34 38.8271 167.543 46.6797 165.949 60.0605C169.07 60.0605 176.939 59.7451 189.557 59.1143C189.557 59.4131 189.723 59.5625 190.055 59.5625L189.557 61.4551C188.826 87.1875 187.88 100.054 186.718 100.054H180.144C176.989 100.054 172.258 100.203 165.949 100.502C162.197 86.291 160.155 78.9199 159.823 78.3887C157.001 76.8945 155.59 75.9482 155.59 75.5498V75.1016C163.193 73.209 169.021 72.2627 173.071 72.2627C171.577 75.085 170.631 76.4961 170.232 76.4961C172.424 86.5566 173.835 91.5869 174.466 91.5869H178.251V66.1367C169.784 66.7676 163.011 67.083 157.931 67.083V66.6348C158.562 53.4863 158.877 43.293 158.877 36.0547C158.877 33.5312 161.55 32.2695 166.896 32.2695C173.403 30.709 177.819 29.9287 180.144 29.9287ZM228.404 29.8291L228.853 30.7256C227.624 37.5654 227.01 41.666 227.01 43.0273H226.113C224.885 38.4785 223.972 36.2041 223.374 36.2041H211.521L217.896 97.3145C220.253 98.8418 221.631 99.6055 222.029 99.6055V100.502H209.678C208.084 100.502 205.511 100.353 201.958 100.054V99.6055C204.382 96.5508 206.042 95.0234 206.938 95.0234V36.2041C199.667 37.2002 196.031 38.2627 196.031 39.3916C195.4 42.4795 195.085 44.3057 195.085 44.8701H194.188L191.449 33.4648C193.275 32.8672 205.594 31.6553 228.404 29.8291ZM261.574 29.9785H262.471C263.102 30.0781 263.417 30.3936 263.417 30.9248C263.749 40.4873 263.915 47.0283 263.915 50.5479H262.969L257.341 40.2383H246.135C246.135 42.5957 245.819 51.1621 245.188 65.9375H245.687C248.177 65.9375 249.887 64.543 250.816 61.7539C251.746 61.0566 252.211 60.2764 252.211 59.4131H253.157V66.3857C253.157 68.5771 253.307 72.0137 253.605 76.6953H252.659C251.464 72.9434 249.754 71.0674 247.529 71.0674H244.74V71.5654C244.74 74.6533 244.591 81.1777 244.292 91.1387C253.921 91.1387 258.735 90.209 258.735 88.3496C261.558 83.5684 262.969 80.7627 262.969 79.9326H263.915C264.513 89.3955 264.812 95.6211 264.812 98.6094C265.144 99.2402 265.31 99.7217 265.31 100.054L264.363 100.502C243.611 99.8711 232.09 99.5557 229.799 99.5557V99.1074C229.799 98.8086 232.604 96.6338 238.216 92.583C238.216 92.3506 238.05 91.4043 237.718 89.7441C237.319 54.25 236.556 36.5029 235.427 36.5029C232.937 34.8096 231.691 33.7305 231.691 33.2656V32.3193H232.14C247.114 30.7588 256.926 29.9785 261.574 29.9785ZM291.656 29.8291C300.422 50.5811 304.805 61.9697 304.805 63.9951C304.473 63.9951 300.09 68.7266 291.656 78.1895C299.459 79.2852 303.36 80.9121 303.36 83.0703C304.987 91.6699 306.133 96.8662 306.797 98.6592C309.121 98.9912 310.416 99.1572 310.682 99.1572V99.6553C302.613 104.536 297.898 106.977 296.537 106.977C294.445 92.002 292.984 84.5146 292.154 84.5146C286.377 83.2197 283.272 82.5723 282.841 82.5723C283.173 87.4531 283.339 91.0225 283.339 93.2803C283.339 94.6748 285.132 96.7998 288.718 99.6553V100.651H266.754V100.153C266.754 99.4893 269.194 98.3438 274.075 96.7168L271.635 36.1543C268.049 34.0293 266.256 32.7344 266.256 32.2695C266.355 31.6055 266.688 31.2734 267.252 31.2734L291.656 29.8291ZM280.4 40.5869V41.0352L282.841 77.6914H283.339C283.339 77.0273 285.464 72.7939 289.714 64.9912C283.837 49.2529 280.898 41.1182 280.898 40.5869H280.4ZM311.479 29.8291H317.405C322.485 29.8291 330.72 29.9951 342.108 30.3271L351.023 58.5166C348.6 62.2354 344.814 67 339.668 72.8105H330.753C331.185 88.6484 332.181 96.5674 333.741 96.5674C335.7 97.7959 336.68 98.6094 336.68 99.0078V100.004H318.401L314.915 100.502L314.467 99.5059C318.053 97.6797 319.862 96.5342 319.896 96.0693L316.907 35.2578C316.044 35.2578 314.234 33.7803 311.479 30.8252V29.8291ZM328.263 40.6865C329.259 57.1553 329.923 66.2197 330.255 67.8799C335.534 62.8662 338.174 59.4131 338.174 57.5205C335.617 47.3271 333.808 41.7158 332.745 40.6865H328.263ZM359.64 29.8291H367.907C371.161 29.8291 376.042 29.9951 382.55 30.3271V30.8252L379.611 33.7139C384.492 53.9014 389.522 73.8896 394.702 93.6787C395.3 93.6787 397.093 94.3428 400.081 95.6709V96.6172L382.052 100.502V99.5557C385.306 96.1689 386.933 94.21 386.933 93.6787C386.601 93.1475 385.455 89.7441 383.496 83.4688C372.771 84.2324 367.409 85.3613 367.409 86.8555C367.177 92.0684 366.861 94.6748 366.463 94.6748C367.492 96.3018 369.269 98.5762 371.792 101.498H370.846C358.162 98.5762 351.82 96.7832 351.82 96.1191V95.6709C357.996 93.3799 361.084 91.4209 361.084 89.7939C364.969 54.5322 366.911 36.1709 366.911 34.71C362.495 32.1201 360.071 30.8252 359.64 30.8252V29.8291ZM373.286 52.7393C370.364 70.835 368.737 80.2646 368.405 81.0283C377.171 79.7334 381.554 78.7539 381.554 78.0898C376.374 61.9531 373.784 53.5029 373.784 52.7393H373.286ZM426.328 29.8291C435.094 50.5811 439.477 61.9697 439.477 63.9951C439.145 63.9951 434.762 68.7266 426.328 78.1895C434.131 79.2852 438.032 80.9121 438.032 83.0703C439.659 91.6699 440.805 96.8662 441.469 98.6592C443.793 98.9912 445.088 99.1572 445.354 99.1572V99.6553C437.285 104.536 432.57 106.977 431.209 106.977C429.117 92.002 427.656 84.5146 426.826 84.5146C421.049 83.2197 417.944 82.5723 417.513 82.5723C417.845 87.4531 418.011 91.0225 418.011 93.2803C418.011 94.6748 419.804 96.7998 423.39 99.6553V100.651H401.426V100.153C401.426 99.4893 403.866 98.3438 408.747 96.7168L406.307 36.1543C402.721 34.0293 400.928 32.7344 400.928 32.2695C401.027 31.6055 401.359 31.2734 401.924 31.2734L426.328 29.8291ZM415.072 40.5869V41.0352L417.513 77.6914H418.011C418.011 77.0273 420.136 72.7939 424.386 64.9912C418.509 49.2529 415.57 41.1182 415.57 40.5869H415.072ZM464.229 29.8291V30.3271C461.972 32.6182 460.843 34.0791 460.843 34.71C460.843 37.333 461.009 46.9619 461.341 63.5967C469.144 56.126 473.045 51.2285 473.045 48.9043C474.041 44.4883 474.539 39.9229 474.539 35.208C474.107 35.208 473.294 34.3945 472.099 32.7676C472.099 32.0039 476.979 31.0244 486.741 29.8291L487.239 30.8252C486.774 30.8252 485.795 31.8047 484.301 33.7637C483.969 43.3594 483.803 49.8672 483.803 53.2871C472.713 60.1602 466.188 64.4102 464.229 66.0371C477.942 70.3535 484.799 73.292 484.799 74.8525C485.131 78.3057 485.463 85.1455 485.795 95.3721C486.824 95.7041 488.119 96.6836 489.68 98.3105C489.68 99.2402 482.674 100.386 468.662 101.747V101.249L474.539 95.3721C473.344 82.9873 471.866 76.7949 470.106 76.7949L461.789 71.416V92.9316C461.789 95.123 462.935 97.248 465.226 99.3066V99.8047C455.796 100.436 449.919 100.751 447.595 100.751V100.253C450.55 96.667 452.193 94.874 452.525 94.874C451.197 54.7646 450.052 34.71 449.089 34.71C448.093 34.71 447.113 34.0625 446.15 32.7676C446.15 32.1035 452.177 31.124 464.229 29.8291Z" fill="#B8AFAF"/>
<path d="M54 16L59.3182 55.0164L66.375 34.3291L54 16Z" fill="#B8AFAF"/>
<path d="M93 16L80.25 34.3291L86.2045 56L93 16Z" fill="#B8AFAF"/>
</svg>
