<svg width="419" height="647" viewBox="0 0 419 647" fill="none" xmlns="http://www.w3.org/2000/svg">
<path d="M117.814 168.884C66.9621 142.864 17.1667 61.1499 17.1667 61.1499C17.1667 61.1499 133.396 97.4397 209.868 96.6624C288.071 95.8675 406.099 55.4813 406.099 55.4813C406.099 55.4813 356.819 146.095 302.459 172.874C237.423 204.912 182.319 201.89 117.814 168.884Z" fill="#231E1E" stroke="black" stroke-width="12"/>
<path d="M234 190.499C248 184.499 280 179.499 280 179.499C239.5 137 195 151.5 163 172.5C163 172.5 142.164 190.846 132.202 215.73C121.552 242.332 122.796 261.006 122.796 261.006C125.351 284.337 141.386 307.599 152.555 325.861C170.866 355.802 187.325 371.248 197.482 403.25C205.498 428.506 210.997 442.697 202 465.999C193.447 488.152 191.5 493.136 165.338 509.784C132 530.999 111.764 523.012 107.895 551.35C105.887 566.061 110.656 588.567 121.504 601.49C130 611.612 159.845 615.256 179.5 608.5C211.5 597.499 225.823 589.362 245.5 570C268.365 547.5 270.802 543.586 280.5 517.499C291.281 488.5 295.134 478.646 296 456.999C296.718 439.051 295.998 430.082 291.281 411.999C287.01 395.631 279.376 379.653 267.5 365C252.409 346.38 243.223 340.409 229.367 320.057C217.642 302.836 210.527 293.531 207 274.499C202.283 249.047 210.853 200.419 234 190.499Z" fill="#0C2561"/>
<path d="M114.193 190.974L98.9753 84.5158L165.235 94.0374L114.193 190.974Z" fill="#F0E3E3"/>
<path d="M310.001 193.531L264.495 92.6281L325.634 80.1264L310.001 193.531Z" fill="#F0E3E3"/>
<path d="M114.193 190.974L98.9753 84.5158L165.235 94.0374L114.193 190.974Z" stroke="black"/>
<path d="M310.001 193.531L264.495 92.6281L325.634 80.1264L310.001 193.531Z" stroke="black"/>
<path d="M265.5 163.5C265.5 163.5 218.953 165.001 205.727 172.501C192.5 180.001 183.919 193.906 174.516 208.113C162.02 226.991 159.891 245.036 168.251 265.917C181.399 298.756 188.528 310.516 205.727 336.419C228.351 370.491 248.322 391.655 252.939 428.342C255.574 449.272 256.413 465.419 246.187 483.909C234.302 505.398 219.325 517.356 201.527 530.308C175.307 549.388 143.496 566.057 143.496 566.057" stroke="black" stroke-width="6" stroke-linecap="round"/>
</svg>
