<svg width="575" height="903" viewBox="0 0 575 903" fill="none" xmlns="http://www.w3.org/2000/svg">
<path d="M423.021 324.686C434.393 282.57 367.192 74.25 575 19H274.66C228.334 78.547 237.44 162.107 237.44 162.107C237.44 162.107 248.813 259.926 207.975 324.686C167.137 389.447 154.293 380.45 107.689 438.357C62.2834 494.775 -3.75165 629.357 0.166626 698.303C5.29535 788.549 104.835 903 207.975 903C337.726 903 491.2 798.893 478.85 776.197C466.5 753.5 240.537 786.86 207.975 730.91C167.551 661.451 189.163 604.391 237.44 538.893C311.879 437.904 411.648 366.803 423.021 324.686Z" fill="#1C006A" fill-opacity="0.7"/>
<path d="M384.796 8C405.093 82.9937 318.743 88.5748 309.129 153.9C301.371 206.618 304.998 282.744 280.714 330.854C234.934 421.549 151.722 479.671 119.867 531.127C91.5583 576.854 79.7215 624.066 91.5583 683.4C100.335 727.394 111.359 754.451 144.437 786.745C220.833 861.332 396.085 807.394 473 779.5" stroke="black" stroke-width="14" stroke-linecap="round"/>
<path d="M237 140.411C251.059 140.411 265.968 140.411 279.935 140.411C288.5 142 300.275 144.758 307 147" stroke="black" stroke-linecap="round" stroke-linejoin="round"/>
<path d="M232.773 259.226C244.563 263.316 256.913 267.119 266.734 275.154C273.397 280.605 286.626 284.751 289.597 293.664" stroke="black" stroke-linecap="round" stroke-linejoin="round"/>
<path d="M208.5 324C226.778 337.978 243.456 352.403 250.853 374.596" stroke="black" stroke-linecap="round" stroke-linejoin="round"/>
<path d="M142 400.5C159.276 407.904 166.263 429.203 171.261 445.626C172.475 449.613 174.227 452.567 174.227 456.771C174.227 459.607 176.106 471.886 172.505 471.886" stroke="black" stroke-linecap="round" stroke-linejoin="round"/>
<path d="M55.5 522C62.5026 522 68.7854 521.192 75.5261 523.439C83.0067 525.932 91.2739 529.593 98.1906 533.409C101.664 535.326 105.209 537.141 108.647 539.051C110.168 539.896 110.526 541.522 111.711 542.115" stroke="black" stroke-linecap="round" stroke-linejoin="round"/>
<path d="M3 664C18.467 664 34.2188 662.297 49.1655 666.624C51.1347 667.194 54.0913 668.142 56 669C59.4059 670.533 61.6373 672.587 65.1668 673.822C73.9337 676.891 81.3397 681.491 88.9499 686.565" stroke="black" stroke-linecap="round" stroke-linejoin="round"/>
<path d="M38 798C54.6 785.612 76.3977 769.19 97.2183 765.404C104.392 764.1 111.267 763.604 118.715 763.604" stroke="black" stroke-linecap="round" stroke-linejoin="round"/>
<path d="M137.975 886.168C137.975 874.102 139.647 865.804 145.562 854.943C149.791 847.18 155.458 841.546 161.612 835.391C167.356 829.648 174.971 821.308 182.623 818.758" stroke="black" stroke-linecap="round" stroke-linejoin="round"/>
<path d="M242.5 900.5C242.5 887.754 240.901 874.151 242.5 862C243.739 858.653 244.831 855.1 246 851.5C246.723 849.272 257.334 830.083 259.5 829" stroke="black" stroke-linecap="round" stroke-linejoin="round"/>
<path d="M308 886C308 871.792 300.542 858.345 300.141 844.026C300.033 840.182 299.887 836.139 300.141 832.296C300.24 830.793 300.958 829.448 300.958 828" stroke="black" stroke-linecap="round" stroke-linejoin="round"/>
</svg>
